<svg xmlns="http://www.w3.org/2000/svg" xmlns:xlink="http://www.w3.org/1999/xlink" width="782" zoomAndPan="magnify" viewBox="0 0 586.5 538.499984" height="718" preserveAspectRatio="xMidYMid meet" version="1.0"><defs><clipPath id="a0a47a4836"><path d="M 255 14.851562 L 314 14.851562 L 314 125 L 255 125 Z M 255 14.851562 " clip-rule="nonzero"/></clipPath><clipPath id="e45e4683fe"><path d="M 148.015625 140 L 438 140 L 438 522.882812 L 148.015625 522.882812 Z M 148.015625 140 " clip-rule="nonzero"/></clipPath></defs><g clip-path="url(#a0a47a4836)"><path fill="#f9cd41" d="M 285.238281 14.851562 C 285.238281 14.851562 219.203125 96.136719 285.238281 124.867188 C 285.238281 124.867188 323.535156 108.027344 311.089844 73.402344 C 298.644531 38.78125 284.703125 52.957031 285.238281 14.851562 Z M 285.238281 14.851562 " fill-opacity="1" fill-rule="nonzero"/></g><path fill="#ea1f1f" d="M 282.621094 58.570312 C 282.621094 58.570312 254.050781 98.246094 286.355469 112.371094 C 286.355469 112.371094 305.097656 104.113281 299.050781 87.195312 C 293.007812 70.277344 282.367188 77.164062 282.621094 58.570312 Z M 282.621094 58.570312 " fill-opacity="1" fill-rule="nonzero"/><g clip-path="url(#e45e4683fe)"><path fill="#e20342" d="M 437.769531 386.882812 C 437.769531 477.546875 381.898438 522.882812 270.152344 522.882812 C 248.351562 522.492188 226.652344 520.800781 205.058594 517.800781 C 169.808594 513.296875 151.277344 507.894531 149.464844 501.59375 C 148.652344 498.953125 148.246094 489.960938 148.246094 474.617188 C 148.492188 463.1875 149.507812 451.824219 151.292969 440.53125 C 153.917969 422.273438 156.957031 413.148438 160.410156 413.148438 C 162.222656 413.429688 163.914062 414.039062 165.492188 414.976562 C 189.820312 427.152344 217.503906 433.238281 248.539062 433.238281 C 293.421875 433.171875 315.863281 418.53125 315.863281 389.320312 C 315.863281 373.300781 307.644531 361.234375 291.203125 353.125 C 278.421875 346.621094 263.117188 343.371094 245.289062 343.371094 C 234.054688 343.660156 222.871094 344.574219 211.738281 346.113281 C 200.589844 347.652344 189.390625 348.566406 178.136719 348.855469 C 171.027344 348.855469 167.496094 345.605469 167.496094 339.128906 C 167.496094 319.652344 168.34375 289.933594 170.035156 249.96875 C 171.730469 210.003906 172.574219 180.292969 172.574219 160.835938 C 172.667969 158.652344 173.089844 156.53125 173.84375 154.480469 C 174.597656 152.429688 175.648438 150.542969 176.996094 148.820312 C 178.113281 146.996094 179.523438 145.441406 181.226562 144.152344 C 182.933594 142.863281 184.816406 141.929688 186.875 141.351562 C 191.34375 140.574219 219.535156 140.175781 271.445312 140.160156 C 330.433594 140.160156 370.078125 140.363281 390.378906 140.769531 C 395.863281 140.972656 398.582031 143.308594 398.582031 147.753906 C 398.265625 163.636719 397.054688 179.453125 394.949219 195.203125 C 391.902344 220.992188 388.246094 233.882812 383.980469 233.863281 L 380.652344 233.558594 C 334.800781 229.496094 306.207031 227.464844 294.863281 227.464844 C 272.5625 227.464844 260.601562 228.683594 258.976562 231.121094 C 255.523438 237.191406 253.898438 248.671875 253.898438 265.488281 C 253.761719 267.683594 254.269531 269.714844 255.421875 271.585938 C 260.5 271.585938 268.507812 271.078125 279.445312 270.0625 C 289.78125 269.046875 297.808594 268.539062 303.472656 268.539062 C 341.210938 268.539062 372.535156 278.578125 397.441406 298.664062 C 424.328125 320.152344 437.769531 349.558594 437.769531 386.882812 Z M 437.769531 386.882812 " fill-opacity="1" fill-rule="nonzero"/></g></svg>