<svg xmlns="http://www.w3.org/2000/svg" xmlns:xlink="http://www.w3.org/1999/xlink" width="782" zoomAndPan="magnify" viewBox="0 0 586.5 538.499984" height="718" preserveAspectRatio="xMidYMid meet" version="1.0"><defs><clipPath id="31201d3e4c"><path d="M 268 12.367188 L 327 12.367188 L 327 122 L 268 122 Z M 268 12.367188 " clip-rule="nonzero"/></clipPath><clipPath id="8e42c9e8e0"><path d="M 157.246094 132 L 447.976562 132 L 447.976562 518 L 157.246094 518 Z M 157.246094 132 " clip-rule="nonzero"/></clipPath></defs><g clip-path="url(#31201d3e4c)"><path fill="#f9cd41" d="M 297.984375 12.566406 C 297.984375 12.566406 232.253906 93.226562 297.984375 121.878906 C 297.984375 121.878906 336.058594 105.152344 323.671875 70.761719 C 311.285156 36.371094 297.453125 50.46875 297.984375 12.566406 Z M 297.984375 12.566406 " fill-opacity="1" fill-rule="nonzero"/></g><path fill="#ea1f1f" d="M 295.382812 56.003906 C 295.382812 56.003906 266.992188 95.425781 299.097656 109.449219 C 299.097656 109.449219 317.730469 101.261719 311.738281 84.433594 C 305.746094 67.601562 295.128906 74.476562 295.382812 56.003906 Z M 295.382812 56.003906 " fill-opacity="1" fill-rule="nonzero"/><g clip-path="url(#8e42c9e8e0)"><path fill="#e20342" d="M 447.976562 404.59375 C 447.976562 441.453125 433.464844 470.164062 404.445312 490.734375 C 378.574219 508.878906 346.382812 517.949219 307.871094 517.949219 C 263.308594 517.949219 228.023438 508.378906 202.019531 489.242188 C 172.171875 467.664062 157.246094 435.511719 157.246094 392.792969 C 157.296875 385.574219 158.324219 378.503906 160.328125 371.570312 C 162.335938 364.640625 165.242188 358.109375 169.054688 351.980469 C 175.113281 342.140625 182.367188 333.28125 190.820312 325.398438 L 202.296875 314.507812 C 202.296875 312.285156 199.179688 307.851562 192.945312 301.214844 C 185.902344 294.492188 179.953125 286.910156 175.09375 278.472656 C 171.796875 272.359375 169.324219 265.925781 167.683594 259.171875 C 166.042969 252.421875 165.285156 245.570312 165.414062 238.625 C 165.414062 202.371094 180.429688 174.761719 210.464844 155.792969 C 235.746094 140.074219 267.605469 132.214844 306.050781 132.214844 C 313.917969 132.15625 321.75 132.667969 329.542969 133.75 C 337.339844 134.832031 345.011719 136.476562 352.566406 138.675781 C 360.121094 140.878906 367.476562 143.617188 374.628906 146.890625 C 381.785156 150.164062 388.664062 153.941406 395.265625 158.21875 C 426.3125 178.179688 441.832031 203.574219 441.832031 234.402344 C 441.929688 242.179688 441.082031 249.847656 439.292969 257.414062 C 437.507812 264.980469 434.832031 272.21875 431.265625 279.128906 C 426.261719 288.785156 419.90625 297.453125 412.203125 305.132812 C 405.363281 312.175781 401.933594 316.308594 401.914062 317.539062 C 405.597656 321.988281 409.53125 326.199219 413.722656 330.175781 C 422.480469 338.730469 429.941406 348.296875 436.09375 358.878906 C 440 365.863281 442.957031 373.230469 444.972656 380.972656 C 446.984375 388.71875 447.984375 396.589844 447.976562 404.59375 Z M 330.953125 407.902344 C 330.953125 388.378906 314.621094 373.671875 281.957031 363.78125 C 271.273438 360.414062 265.523438 358.726562 264.714844 358.726562 C 257.652344 358.726562 250.792969 364.371094 244.136719 375.660156 C 237.902344 386.136719 234.785156 395.207031 234.785156 402.875 C 234.746094 404.441406 234.800781 406.007812 234.941406 407.570312 C 235.085938 409.132812 235.320312 410.679688 235.644531 412.214844 C 235.96875 413.75 236.378906 415.261719 236.875 416.75 C 237.375 418.238281 237.957031 419.691406 238.625 421.113281 C 239.292969 422.535156 240.039062 423.910156 240.863281 425.246094 C 241.691406 426.578125 242.589844 427.859375 243.566406 429.089844 C 244.539062 430.320312 245.582031 431.488281 246.691406 432.597656 C 247.804688 433.707031 248.972656 434.75 250.203125 435.722656 C 252.613281 437.746094 255.183594 439.53125 257.917969 441.085938 C 260.652344 442.640625 263.503906 443.933594 266.472656 444.96875 C 269.441406 446 272.480469 446.757812 275.589844 447.238281 C 278.695312 447.71875 281.824219 447.917969 284.964844 447.828125 C 315.574219 447.828125 330.867188 434.519531 330.851562 407.902344 Z M 360.277344 234.402344 C 360.277344 224.109375 355.644531 215.644531 346.375 209.007812 C 342.140625 206.082031 337.558594 203.871094 332.636719 202.375 C 327.710938 200.875 322.675781 200.164062 317.527344 200.242188 C 289.3125 200.242188 275.207031 212.132812 275.207031 235.921875 C 275.207031 251.636719 293.25 264.433594 329.332031 274.304688 C 331.113281 274.8125 332.921875 275.113281 334.769531 275.214844 C 341.410156 275.214844 347.460938 269.976562 352.921875 259.496094 C 355.113281 255.664062 356.824219 251.625 358.050781 247.382812 C 359.277344 243.140625 359.984375 238.816406 360.175781 234.402344 Z M 360.277344 234.402344 " fill-opacity="1" fill-rule="nonzero"/></g></svg>