<svg xmlns="http://www.w3.org/2000/svg" xmlns:xlink="http://www.w3.org/1999/xlink" width="782" zoomAndPan="magnify" viewBox="0 0 586.5 538.499984" height="718" preserveAspectRatio="xMidYMid meet" version="1.0"><defs><clipPath id="fed3a4e610"><path d="M 69 61 L 509 61 L 509 496 L 69 496 Z M 69 61 " clip-rule="nonzero"/></clipPath><clipPath id="74d2f6950e"><path d="M 217.089844 -47.378906 L 603.464844 188.296875 L 368.957031 572.753906 L -17.414062 337.078125 Z M 217.089844 -47.378906 " clip-rule="nonzero"/></clipPath><clipPath id="5cc96b6438"><path d="M 217.089844 -47.378906 L 603.464844 188.296875 L 368.957031 572.753906 L -17.414062 337.078125 Z M 217.089844 -47.378906 " clip-rule="nonzero"/></clipPath><clipPath id="da68f75a73"><path d="M 217.089844 -47.378906 L 603.464844 188.296875 L 368.957031 572.753906 L -17.414062 337.078125 Z M 217.089844 -47.378906 " clip-rule="nonzero"/></clipPath><clipPath id="0b92c2abe6"><path d="M 96 195 L 480 195 L 480 343 L 96 343 Z M 96 195 " clip-rule="nonzero"/></clipPath><clipPath id="b26a8c7ded"><path d="M 217.089844 -47.378906 L 603.464844 188.296875 L 368.957031 572.753906 L -17.414062 337.078125 Z M 217.089844 -47.378906 " clip-rule="nonzero"/></clipPath><clipPath id="3ac4e4c6e9"><path d="M 217.089844 -47.378906 L 603.464844 188.296875 L 368.957031 572.753906 L -17.414062 337.078125 Z M 217.089844 -47.378906 " clip-rule="nonzero"/></clipPath><clipPath id="c189dc2810"><path d="M 217.089844 -47.378906 L 603.464844 188.296875 L 368.957031 572.753906 L -17.414062 337.078125 Z M 217.089844 -47.378906 " clip-rule="nonzero"/></clipPath><clipPath id="a8476d0bb3"><path d="M 123 138 L 444 138 L 444 420 L 123 420 Z M 123 138 " clip-rule="nonzero"/></clipPath><clipPath id="f2a44b62cc"><path d="M 217.089844 -47.378906 L 603.464844 188.296875 L 368.957031 572.753906 L -17.414062 337.078125 Z M 217.089844 -47.378906 " clip-rule="nonzero"/></clipPath><clipPath id="c96fe948cb"><path d="M 217.089844 -47.378906 L 603.464844 188.296875 L 368.957031 572.753906 L -17.414062 337.078125 Z M 217.089844 -47.378906 " clip-rule="nonzero"/></clipPath><clipPath id="580172d102"><path d="M 217.089844 -47.378906 L 603.464844 188.296875 L 368.957031 572.753906 L -17.414062 337.078125 Z M 217.089844 -47.378906 " clip-rule="nonzero"/></clipPath><clipPath id="c7a66f24ff"><path d="M 361 87 L 483 87 L 483 218 L 361 218 Z M 361 87 " clip-rule="nonzero"/></clipPath><clipPath id="66daab4f40"><path d="M 217.089844 -47.378906 L 603.464844 188.296875 L 368.957031 572.753906 L -17.414062 337.078125 Z M 217.089844 -47.378906 " clip-rule="nonzero"/></clipPath><clipPath id="db600bfe6c"><path d="M 217.089844 -47.378906 L 603.464844 188.296875 L 368.957031 572.753906 L -17.414062 337.078125 Z M 217.089844 -47.378906 " clip-rule="nonzero"/></clipPath><clipPath id="2dcf5f055d"><path d="M 217.089844 -47.378906 L 603.464844 188.296875 L 368.957031 572.753906 L -17.414062 337.078125 Z M 217.089844 -47.378906 " clip-rule="nonzero"/></clipPath><clipPath id="b65a5c5fae"><path d="M 338 72 L 357 72 L 357 92 L 338 92 Z M 338 72 " clip-rule="nonzero"/></clipPath><clipPath id="b8331e8fa0"><path d="M 217.089844 -47.378906 L 603.464844 188.296875 L 368.957031 572.753906 L -17.414062 337.078125 Z M 217.089844 -47.378906 " clip-rule="nonzero"/></clipPath><clipPath id="8b41696118"><path d="M 217.089844 -47.378906 L 603.464844 188.296875 L 368.957031 572.753906 L -17.414062 337.078125 Z M 217.089844 -47.378906 " clip-rule="nonzero"/></clipPath><clipPath id="1cd78f6b48"><path d="M 217.089844 -47.378906 L 603.464844 188.296875 L 368.957031 572.753906 L -17.414062 337.078125 Z M 217.089844 -47.378906 " clip-rule="nonzero"/></clipPath></defs><g clip-path="url(#fed3a4e610)"><g clip-path="url(#74d2f6950e)"><g clip-path="url(#5cc96b6438)"><g clip-path="url(#da68f75a73)"><path fill="#ffe43d" d="M 499.902344 310.582031 C 482.90625 383.457031 452.578125 435.234375 406.160156 466.324219 C 360.542969 496.785156 298.9375 506.613281 237.21875 482.355469 C 177.296875 455.84375 128.066406 404.484375 98.375 352.625 C 68.976562 299.835938 58.945312 246.585938 81.246094 193.121094 C 103.28125 139.628906 141.296875 113.175781 190.621094 91.949219 C 239.445312 72.230469 299.777344 57.855469 355.636719 62.925781 C 409.90625 71.066406 452.125 95.984375 479.160156 137.574219 C 505.726562 179.019531 517.007812 237.070312 499.902344 310.582031 Z M 499.902344 310.582031 " fill-opacity="1" fill-rule="nonzero"/></g></g></g></g><g clip-path="url(#0b92c2abe6)"><g clip-path="url(#b26a8c7ded)"><g clip-path="url(#3ac4e4c6e9)"><g clip-path="url(#c189dc2810)"><path fill="#db3dff" d="M 170.035156 245.882812 C 163.953125 264.761719 142.511719 274.550781 122.453125 266.082031 C 102.332031 257.714844 91.957031 234.511719 99.011719 216.085938 C 106.132812 197.5625 126.710938 191.011719 145.796875 199.027344 C 165.042969 207 176.179688 226.902344 170.035156 245.882812 Z M 455.242188 254.476562 C 436.664062 249.976562 416.738281 264.59375 411.464844 287.171875 C 406.191406 309.753906 417.773438 333.269531 436.1875 340.320312 C 454.605469 347.371094 472.8125 333.515625 478.410156 308.347656 C 483.804688 283.050781 473.820312 258.976562 455.242188 254.476562 Z M 455.242188 254.476562 " fill-opacity="1" fill-rule="nonzero"/></g></g></g></g><g clip-path="url(#a8476d0bb3)"><g clip-path="url(#f2a44b62cc)"><g clip-path="url(#c96fe948cb)"><g clip-path="url(#580172d102)"><path fill="#000000" d="M 439.9375 330.058594 C 439.019531 330.195312 438.144531 329.800781 437.394531 329.203125 C 436.136719 328.296875 435.3125 326.679688 435.304688 324.863281 C 434.929688 317.9375 433.152344 312.394531 430.695312 307.96875 C 409.238281 388.164062 334.347656 438.277344 255.226562 413.304688 C 241.546875 409 228.613281 402.785156 216.773438 395.007812 C 194.492188 380.578125 175.742188 361.054688 162.148438 339.238281 C 142.691406 307.847656 136.550781 274.960938 144.839844 244.460938 C 140.339844 245.898438 135.8125 248.292969 132.023438 252.675781 C 130.542969 254.421875 127.765625 254.402344 125.59375 252.9375 C 125.492188 252.875 125.390625 252.8125 125.289062 252.75 C 123.140625 251.023438 122.628906 248.203125 124.214844 246.519531 C 141.519531 227.511719 169.515625 236.222656 170.84375 236.335938 C 173.449219 237.089844 175 239.570312 174.332031 241.808594 C 173.660156 244.050781 171.039062 245.378906 168.332031 244.566406 C 167.863281 244.417969 162.382812 242.890625 155.484375 243.003906 C 146.078125 272.820312 151.40625 305.214844 170.566406 335.726562 C 190.105469 366.75 221.058594 392.320312 257.671875 403.359375 C 333.417969 426.554688 405.46875 376.519531 423.4375 299.078125 C 417.960938 294.34375 412.546875 292.714844 412.078125 292.566406 C 409.570312 291.875 408.144531 289.191406 408.859375 286.421875 C 409.511719 283.75 412.054688 282.09375 414.621094 282.683594 C 415.824219 283 442.300781 290.085938 443.964844 324.148438 C 444.183594 327.210938 442.410156 329.894531 439.9375 330.058594 Z M 274.253906 138.082031 C 265.449219 136.757812 249.296875 159.8125 239.359375 189.585938 C 229.417969 219.359375 229.65625 245.019531 239.109375 246.882812 C 248.566406 248.746094 263.253906 225.355469 272.582031 195.207031 C 281.972656 164.960938 283.164062 139.472656 274.253906 138.082031 Z M 381.269531 150.230469 C 372.480469 149.332031 358.113281 173.339844 349.71875 204.472656 C 341.382812 235.5 342.339844 262.71875 351.554688 264.292969 C 360.828125 265.769531 374.695312 240.066406 382.605469 208.359375 C 390.417969 176.589844 389.996094 151.234375 381.269531 150.230469 Z M 381.269531 150.230469 " fill-opacity="1" fill-rule="nonzero"/></g></g></g></g><g clip-path="url(#c7a66f24ff)"><g clip-path="url(#66daab4f40)"><g clip-path="url(#db600bfe6c)"><g clip-path="url(#2dcf5f055d)"><path fill="#ffffff" d="M 481.871094 197.792969 C 478.890625 184.402344 470.804688 171.382812 464.058594 159.597656 C 456.742188 146.910156 448.832031 134.972656 437.804688 125.175781 C 428.558594 117.027344 417.488281 110.273438 406.46875 104.808594 C 393.230469 98.40625 378.234375 89.398438 363.453125 87.355469 C 361.394531 87.074219 360.398438 89.394531 361.714844 90.894531 C 369.691406 99.523438 380.609375 104.929688 389.632812 112.527344 C 398.25 119.875 406.988281 127.714844 414.847656 135.855469 C 435.421875 157.1875 436.75 187 453.492188 210.042969 C 463.734375 224.097656 486.023438 215.664062 481.871094 197.792969 Z M 481.871094 197.792969 " fill-opacity="0.5" fill-rule="nonzero"/></g></g></g></g><g clip-path="url(#b65a5c5fae)"><g clip-path="url(#b8331e8fa0)"><g clip-path="url(#8b41696118)"><g clip-path="url(#1cd78f6b48)"><path fill="#ffffff" d="M 349.28125 72.433594 C 337.488281 69.148438 333.308594 87.652344 345.039062 91.042969 C 356.832031 94.332031 361.074219 75.722656 349.28125 72.433594 Z M 349.28125 72.433594 " fill-opacity="0.5" fill-rule="nonzero"/></g></g></g></g></svg>