<svg xmlns="http://www.w3.org/2000/svg" xmlns:xlink="http://www.w3.org/1999/xlink" width="782" zoomAndPan="magnify" viewBox="0 0 586.5 538.499984" height="718" preserveAspectRatio="xMidYMid meet" version="1.0"><defs><clipPath id="41d5ba164d"><path d="M 61.144531 37.050781 L 524.964844 37.050781 L 524.964844 500.871094 L 61.144531 500.871094 Z M 61.144531 37.050781 " clip-rule="nonzero"/></clipPath></defs><g clip-path="url(#41d5ba164d)"><path fill="#00b64f" d="M 524.941406 268.949219 C 524.941406 396.8125 420.90625 500.847656 293.042969 500.847656 C 165.179688 500.847656 61.144531 396.8125 61.144531 268.949219 C 61.144531 141.082031 165.179688 37.050781 293.042969 37.050781 C 420.90625 37.050781 524.941406 141.082031 524.941406 268.949219 Z M 524.941406 268.949219 " fill-opacity="1" fill-rule="nonzero"/></g><path fill="#000000" d="M 293.042969 59.378906 C 177.480469 59.378906 83.472656 153.386719 83.472656 268.949219 C 83.472656 384.507812 177.480469 478.519531 293.042969 478.519531 C 408.605469 478.519531 502.613281 384.507812 502.613281 268.949219 C 502.613281 153.386719 408.605469 59.378906 293.042969 59.378906 Z M 293.042969 464.417969 C 185.261719 464.417969 97.574219 376.730469 97.574219 268.949219 C 97.574219 161.167969 185.261719 73.480469 293.042969 73.480469 C 400.824219 73.480469 488.511719 161.167969 488.511719 268.949219 C 488.511719 376.730469 400.824219 464.417969 293.042969 464.417969 Z M 293.042969 464.417969 " fill-opacity="1" fill-rule="nonzero"/><path fill="#0f0f0f" d="M 339.601562 190.203125 C 337.792969 186.75 339.128906 182.496094 342.585938 180.683594 C 346.027344 178.875 350.292969 180.214844 352.105469 183.667969 C 354.6875 188.605469 359.039062 192.238281 364.347656 193.90625 C 369.660156 195.574219 375.3125 195.070312 380.25 192.484375 C 383.691406 190.671875 387.957031 192.011719 389.765625 195.46875 C 391.578125 198.921875 390.238281 203.175781 386.78125 204.988281 C 381.707031 207.640625 376.183594 208.980469 370.625 208.980469 C 367.109375 208.980469 363.585938 208.441406 360.140625 207.371094 C 351.222656 204.5625 343.9375 198.476562 339.601562 190.203125 Z M 222.183594 199.957031 C 227.257812 202.613281 232.78125 203.953125 238.339844 203.953125 C 241.855469 203.953125 245.378906 203.410156 248.824219 202.34375 C 257.730469 199.558594 265.027344 193.457031 269.351562 185.1875 C 271.160156 181.730469 269.820312 177.476562 266.367188 175.667969 C 262.914062 173.859375 258.660156 175.195312 256.847656 178.652344 C 254.261719 183.585938 249.914062 187.21875 244.605469 188.886719 C 239.292969 190.554688 233.640625 190.050781 228.703125 187.464844 C 225.25 185.65625 220.996094 186.996094 219.1875 190.449219 C 217.398438 193.894531 218.726562 198.160156 222.183594 199.957031 Z M 202.3125 244.660156 L 246.636719 264.765625 C 247.578125 265.1875 248.574219 265.398438 249.550781 265.398438 C 252.230469 265.398438 254.792969 263.859375 255.980469 261.261719 C 257.589844 257.714844 256.015625 253.542969 252.464844 251.933594 L 208.140625 231.824219 C 204.589844 230.214844 200.417969 231.789062 198.808594 235.339844 C 197.1875 238.863281 198.761719 243.046875 202.3125 244.660156 Z M 352.914062 260.265625 C 354.042969 262.976562 356.664062 264.625 359.4375 264.625 C 360.328125 264.625 361.246094 264.449219 362.128906 264.082031 L 407.109375 245.503906 C 410.707031 244.011719 412.421875 239.898438 410.941406 236.292969 C 409.449219 232.695312 405.324219 230.980469 401.730469 232.460938 L 356.746094 251.039062 C 353.148438 252.542969 351.433594 256.667969 352.914062 260.265625 Z M 307.742188 288.136719 C 314.875 288.136719 320.667969 282.34375 320.667969 275.210938 C 320.667969 268.089844 314.875 262.285156 307.742188 262.285156 C 300.609375 262.285156 294.816406 268.078125 294.816406 275.210938 C 294.816406 282.34375 300.621094 288.136719 307.742188 288.136719 Z M 404.972656 336.503906 C 396.5 336 392.796875 331.746094 387.6875 325.847656 C 382.035156 319.324219 374.996094 311.195312 360.578125 310.347656 C 346.167969 309.476562 338.214844 316.738281 331.832031 322.558594 C 326.0625 327.808594 321.890625 331.617188 313.417969 331.113281 C 304.945312 330.605469 301.246094 326.351562 296.132812 320.453125 C 290.480469 313.917969 283.441406 305.800781 269.035156 304.953125 C 254.628906 304.085938 246.683594 311.347656 240.292969 317.164062 C 234.523438 322.414062 230.351562 326.222656 221.878906 325.71875 C 213.40625 325.210938 209.714844 320.957031 204.601562 315.058594 C 198.949219 308.527344 191.910156 300.40625 177.492188 299.558594 C 173.601562 299.300781 170.265625 302.296875 170.042969 306.1875 C 169.808594 310.078125 172.78125 313.414062 176.671875 313.636719 C 185.144531 314.144531 188.832031 318.398438 193.945312 324.296875 C 199.597656 330.828125 206.636719 338.949219 221.042969 339.796875 C 235.449219 340.664062 243.40625 333.402344 249.785156 327.585938 C 255.554688 322.332031 259.714844 318.539062 268.199219 319.03125 C 276.671875 319.535156 280.363281 323.789062 285.476562 329.691406 C 291.128906 336.222656 298.167969 344.34375 312.585938 345.191406 C 326.980469 346.058594 334.945312 338.796875 341.328125 332.980469 C 347.097656 327.726562 351.28125 323.933594 359.742188 324.425781 C 368.214844 324.929688 371.917969 329.183594 377.027344 335.082031 C 382.679688 341.617188 389.71875 349.738281 404.136719 350.582031 C 404.277344 350.59375 404.421875 350.59375 404.5625 350.59375 C 408.261719 350.59375 411.375 347.703125 411.589844 343.957031 C 411.824219 340.078125 408.863281 336.742188 404.972656 336.503906 Z M 404.972656 336.503906 " fill-opacity="1" fill-rule="nonzero"/></svg>