<svg xmlns="http://www.w3.org/2000/svg" xmlns:xlink="http://www.w3.org/1999/xlink" width="782" zoomAndPan="magnify" viewBox="0 0 586.5 538.499984" height="718" preserveAspectRatio="xMidYMid meet" version="1.0"><defs><clipPath id="ab381954ba"><path d="M 105 279 L 353 279 L 353 527.28125 L 105 527.28125 Z M 105 279 " clip-rule="nonzero"/></clipPath><clipPath id="ceaf9b16d4"><path d="M 270 242.300781 L 518.546875 242.300781 L 518.546875 490.109375 L 270 490.109375 Z M 270 242.300781 " clip-rule="nonzero"/></clipPath><clipPath id="e04db55232"><path d="M 67.035156 113 L 317 113 L 317 361 L 67.035156 361 Z M 67.035156 113 " clip-rule="nonzero"/></clipPath><clipPath id="e1612d21d6"><path d="M 189 11.011719 L 438 11.011719 L 438 255 L 189 255 Z M 189 11.011719 " clip-rule="nonzero"/></clipPath></defs><g clip-path="url(#ab381954ba)"><path fill="#51b59f" d="M 351.957031 466.546875 C 351.171875 468.523438 349.714844 472.199219 321.910156 481.320312 C 309.835938 485.28125 293.261719 489.902344 286.285156 489.90625 C 284.972656 489.90625 283.042969 489.773438 281.449219 488.648438 C 276.773438 485.335938 277.203125 477.765625 277.699219 469.003906 C 277.890625 465.699219 278.175781 460.707031 277.679688 459.308594 C 274.84375 451.273438 269.253906 447.011719 260.578125 446.285156 C 259.316406 446.179688 258.09375 446.128906 256.9375 446.128906 C 249.316406 446.128906 244.152344 448.394531 241.582031 452.871094 C 236.910156 460.992188 240.605469 474.710938 246.011719 484.015625 C 246.859375 485.472656 247.636719 486.761719 248.324219 487.898438 C 251.378906 492.953125 253.390625 496.292969 252.035156 500.121094 C 250.570312 504.238281 246.535156 505.6875 237.691406 508.855469 C 236.535156 509.269531 235.285156 509.722656 233.925781 510.214844 C 224.539062 513.632812 215.136719 517.015625 205.738281 520.402344 C 200.878906 522.152344 186.671875 527.28125 186.671875 527.28125 L 185.054688 522.792969 C 183.957031 519.75 182.65625 514.980469 181.144531 509.453125 C 177.167969 494.917969 168.894531 464.671875 160.511719 461.652344 C 159.585938 461.324219 158.722656 461.160156 157.867188 461.160156 C 154.015625 461.160156 150.179688 464.789062 146.117188 468.628906 C 140.945312 473.519531 135.078125 479.066406 126.949219 479.066406 C 123.625 479.066406 120.214844 478.09375 116.804688 476.1875 C 111.566406 473.242188 107.667969 467.769531 106.125 461.167969 C 104.582031 454.570312 105.621094 447.976562 108.960938 443.078125 C 114.261719 435.324219 120.925781 434.429688 125.480469 434.429688 C 127.441406 434.429688 129.378906 434.613281 131.25 434.789062 C 133.054688 434.960938 134.757812 435.117188 136.417969 435.117188 C 138.425781 435.117188 140.042969 434.875 141.492188 434.355469 C 144.773438 433.179688 146.78125 431.5 147.816406 429.074219 C 151.078125 421.464844 144.703125 407.050781 139.582031 395.464844 C 136.503906 388.5 133.597656 381.921875 132.527344 376.597656 L 132.390625 375.949219 C 130.945312 368.773438 130.222656 365.171875 131.691406 361.863281 C 133.414062 357.984375 137.003906 356.84375 142.441406 355.117188 C 144.363281 354.5 146.546875 353.804688 149.207031 352.847656 C 152.410156 351.699219 156.550781 350.578125 160.933594 349.394531 C 170.652344 346.753906 183.957031 343.152344 188.894531 338.195312 C 194.738281 332.335938 192.847656 328.945312 185.480469 319.96875 C 178.972656 312.035156 170.058594 301.179688 181.3125 287.753906 C 185.644531 282.59375 192.882812 279.386719 200.207031 279.386719 C 205.78125 279.386719 210.882812 281.265625 214.582031 284.679688 C 222.003906 291.53125 221.082031 299.824219 220.34375 306.480469 C 219.910156 310.386719 219.5 314.074219 220.707031 317.011719 C 221.746094 319.53125 223.878906 322.414062 231.265625 322.414062 C 243.898438 322.414062 262.632812 313.964844 276.308594 307.792969 C 281.375 305.511719 278.101562 306.691406 281.375 305.511719 L 282.882812 304.917969 C 288.660156 302.640625 295.167969 305.671875 297.152344 311.558594 C 298.167969 314.375 297.992188 312.269531 300.136719 317.171875 C 312.214844 344.71875 321.238281 368.109375 309.3125 375.273438 C 306.046875 377.234375 302.34375 377.460938 299.839844 377.460938 C 297.953125 377.460938 296.015625 377.3125 294.144531 377.171875 C 292.34375 377.03125 290.480469 376.886719 288.757812 376.886719 C 285.804688 376.886719 283.691406 377.316406 282.105469 378.226562 C 274.449219 382.636719 270.875 391.765625 273.214844 400.953125 C 275.1875 408.683594 281.285156 415.324219 288.039062 417.097656 C 289.445312 417.464844 290.773438 417.648438 291.988281 417.648438 C 296.402344 417.648438 299.503906 415.164062 303.425781 412.015625 C 306.527344 409.527344 310.039062 406.703125 314.621094 405.03125 C 318.695312 403.550781 321.277344 402.941406 323.542969 402.941406 C 330.78125 402.941406 332.730469 408.820312 334.984375 415.628906 C 335.507812 417.21875 336.105469 419.019531 336.839844 421.050781 C 337.457031 422.777344 339.019531 426.191406 340.832031 430.148438 C 350.296875 450.84375 354.148438 461.011719 351.957031 466.546875 " fill-opacity="1" fill-rule="nonzero"/></g><g clip-path="url(#ceaf9b16d4)"><path fill="#397dc9" d="M 518.546875 408.421875 L 514.058594 410.039062 C 511.371094 411.011719 507.335938 412.128906 502.226562 413.546875 C 492.636719 416.210938 479.5 419.851562 468.988281 424.421875 C 454.171875 430.859375 452.402344 435.742188 452.332031 437.542969 C 452.226562 440.144531 456.542969 446.355469 459.695312 450.886719 C 465.929688 459.863281 472.996094 470.027344 469.242188 478.789062 C 466.824219 484.433594 460.609375 487.949219 450.234375 489.550781 C 448.210938 489.867188 446.296875 490.023438 444.550781 490.023438 C 426.421875 490.023438 426.347656 473.96875 426.296875 463.339844 C 426.265625 456.457031 426.230469 449.347656 422.777344 446.667969 C 421.5625 445.726562 419.476562 445.226562 416.757812 445.226562 C 404.5625 445.226562 383.816406 454.753906 370.09375 461.050781 C 364.722656 463.523438 360.082031 465.652344 356.886719 466.808594 L 352.402344 468.425781 L 350.785156 463.9375 C 349.796875 461.191406 348.625 456.984375 347.144531 451.65625 C 344.535156 442.269531 340.964844 429.414062 336.660156 418.972656 C 330.503906 404.023438 326.050781 401.660156 324.417969 401.339844 C 324.195312 401.292969 323.957031 401.273438 323.710938 401.273438 C 320.085938 401.273438 314.425781 405.527344 309.433594 409.285156 C 302.777344 414.285156 295.894531 419.460938 288.792969 419.460938 C 281.46875 419.460938 275.878906 414.140625 272.175781 403.640625 C 269.253906 395.347656 269.339844 389.027344 272.453125 384.324219 C 277.296875 376.996094 287.40625 376.367188 297.179688 375.761719 C 303.785156 375.347656 311.265625 374.882812 313.453125 372.117188 C 319.378906 364.625 311.722656 349.03125 304.972656 335.269531 C 299.289062 323.6875 293.921875 312.753906 294.714844 304.007812 L 294.988281 300.980469 L 297.847656 299.953125 C 300.820312 298.875 304.976562 297.058594 309.789062 294.953125 C 324.015625 288.730469 341.714844 280.988281 353.855469 280.988281 C 359.699219 280.988281 363.992188 282.792969 366.617188 286.351562 C 369.898438 290.808594 369.59375 296.445312 369.296875 301.902344 C 368.96875 307.804688 368.667969 313.378906 372.558594 317.1875 C 376.335938 320.882812 381.09375 322.832031 386.324219 322.832031 C 389.003906 322.832031 391.746094 322.324219 394.480469 321.324219 C 402.679688 318.332031 407.796875 312.121094 408.523438 304.289062 C 409.082031 298.28125 406.59375 295.308594 403.152344 291.1875 C 400.773438 288.34375 398.078125 285.117188 396.375 280.628906 C 394.335938 275.253906 393.410156 271.214844 395.09375 267.671875 C 396.980469 263.707031 401.054688 262.359375 406.699219 260.496094 C 408.335938 259.957031 410.183594 259.34375 412.246094 258.597656 C 413.855469 258.011719 417.191406 256.492188 421.054688 254.734375 C 435.425781 248.183594 447.863281 242.761719 454.433594 242.761719 C 455.828125 242.761719 457.015625 242.988281 458.0625 243.449219 C 462.882812 245.5625 466.285156 253.667969 473.246094 279.582031 C 474.167969 283.019531 474.964844 285.988281 475.417969 287.320312 C 475.992188 289.011719 476.6875 290.730469 477.355469 292.398438 C 480.394531 299.945312 484.550781 310.28125 473.203125 316.328125 C 470.625 317.699219 467.722656 318.339844 464.078125 318.339844 C 462.070312 318.339844 460.058594 318.152344 458.105469 317.964844 C 456.199219 317.785156 454.394531 317.609375 452.632812 317.609375 C 449.109375 317.609375 446.683594 318.324219 444.53125 319.984375 C 438.109375 324.949219 435.519531 335.097656 438.503906 343.59375 C 441.480469 352.066406 449.558594 358.222656 457.703125 358.222656 L 457.996094 358.21875 C 462.644531 358.136719 466.429688 354.460938 470.441406 350.574219 C 474.53125 346.613281 478.757812 342.515625 484.472656 342.109375 C 484.714844 342.09375 484.953125 342.085938 485.195312 342.085938 C 497.972656 342.085938 505.597656 365.046875 513.550781 392.78125 C 514.898438 397.460938 516.054688 401.507812 516.925781 403.929688 L 518.546875 408.421875 " fill-opacity="1" fill-rule="nonzero"/></g><g clip-path="url(#e04db55232)"><path fill="#f8e505" d="M 312.445312 223.796875 C 307.113281 229.851562 298.113281 229.863281 290.171875 229.875 C 285.089844 229.882812 279.832031 229.886719 276.75 231.457031 C 269.78125 235 271.214844 241.863281 277.0625 255.914062 C 278.003906 258.175781 278.890625 260.304688 279.625 262.351562 C 280.214844 264.007812 281.617188 266.882812 283.09375 269.921875 C 288.898438 281.847656 292.871094 290.75 291.074219 296.75 C 288.625 304.9375 279.550781 307.8125 270.773438 310.59375 C 268.820312 311.210938 266.804688 311.847656 264.929688 312.527344 C 262.464844 313.417969 259.589844 314.714844 256.550781 316.085938 C 249.476562 319.277344 241.460938 322.890625 234.46875 323.21875 C 232.636719 323.304688 231.253906 323.34375 230.121094 323.34375 C 227.140625 323.34375 223.777344 323.152344 221.535156 320.800781 C 219.3125 318.476562 219.441406 315.535156 219.566406 312.691406 C 219.644531 310.910156 219.742188 308.6875 219.449219 305.839844 C 217.949219 291.273438 210.164062 282.578125 198.617188 282.578125 C 191.144531 282.578125 184.003906 286.398438 180.429688 292.316406 C 176.996094 297.992188 177.207031 304.859375 181.03125 312.179688 C 181.601562 313.261719 183.902344 315.507812 185.75 317.3125 C 190.746094 322.195312 195.910156 327.242188 194.808594 332.96875 C 193.476562 339.882812 184.179688 342.988281 173.082031 346.058594 C 171.484375 346.496094 169.980469 346.914062 169.21875 347.191406 C 166.675781 348.113281 163.875 349.347656 160.914062 350.652344 C 154.058594 353.671875 146.972656 356.792969 140.175781 357.511719 C 136.613281 357.890625 135.621094 358.6875 135.191406 359.023438 C 134.683594 359.429688 133.496094 360.378906 131.699219 360.378906 C 131.699219 360.378906 131.695312 360.378906 131.695312 360.378906 C 128.425781 360.378906 127.179688 357.664062 126.578125 356.363281 C 126.042969 355.1875 125.042969 353.003906 122.734375 349.183594 C 120.257812 345.074219 118.796875 340.148438 117.386719 335.386719 C 116.761719 333.289062 116.179688 331.308594 115.542969 329.546875 C 115.140625 328.429688 114.191406 326.339844 113.09375 323.914062 C 106.050781 308.390625 103.203125 300.109375 106.054688 295.035156 C 109.546875 288.832031 116.71875 288.832031 119.074219 288.832031 C 120.921875 288.832031 122.824219 288.980469 124.660156 289.117188 C 126.4375 289.253906 128.113281 289.382812 129.679688 289.382812 C 131.140625 289.382812 132.289062 289.265625 133.195312 289.035156 C 140.816406 287.054688 146.492188 281.472656 148.375 274.105469 C 150.265625 266.683594 147.875 258.9375 141.96875 253.382812 C 138.054688 249.695312 133.945312 247.90625 129.40625 247.90625 C 126.175781 247.90625 122.660156 248.832031 118.957031 250.664062 C 117.851562 251.210938 115.285156 253.859375 113.410156 255.789062 C 108.753906 260.597656 104.359375 265.136719 99.492188 265.136719 L 99.191406 265.128906 C 89.679688 264.757812 82.824219 247.097656 71.945312 210.140625 C 70.664062 205.792969 69.554688 202.039062 68.921875 200.277344 L 67.304688 195.78125 L 71.789062 194.164062 C 76.734375 192.378906 83.03125 190.703125 89.699219 188.929688 C 104.023438 185.117188 121.855469 180.371094 129.28125 173.261719 C 132.703125 169.984375 134.425781 167.40625 134.269531 165.792969 C 134.117188 164.210938 132.21875 161.957031 130.027344 159.359375 C 127.894531 156.832031 125.238281 153.683594 122.9375 149.660156 C 118.335938 141.628906 118.351562 131.675781 122.976562 123.683594 C 126.894531 116.917969 133.289062 113.039062 140.53125 113.039062 C 144.511719 113.039062 148.558594 114.21875 152.558594 116.550781 C 163.261719 122.789062 162.761719 133.632812 162.363281 142.339844 C 161.964844 151.03125 162.222656 155.085938 166.375 157.386719 C 167.382812 157.945312 168.820312 158.226562 170.65625 158.226562 C 179.324219 158.226562 192.707031 152.113281 202.480469 147.652344 C 206.316406 145.898438 209.625 144.386719 212.136719 143.472656 C 214.410156 142.652344 216.261719 141.871094 217.898438 141.1875 C 221.203125 139.796875 223.59375 138.789062 226.289062 138.789062 C 231.210938 138.789062 234.507812 142.34375 237.457031 145.980469 C 242.359375 152.023438 245.035156 162.039062 247.398438 170.878906 C 248.414062 174.683594 249.371094 178.273438 250.378906 181.050781 C 250.972656 182.691406 251.542969 184.382812 252.109375 186.085938 C 255.585938 196.445312 258.289062 203.230469 263.910156 203.230469 C 265.34375 203.230469 267.03125 202.855469 268.933594 202.117188 C 271.238281 201.222656 273.332031 198.839844 275.546875 196.324219 C 278.777344 192.65625 282.433594 188.496094 288.210938 187.089844 C 289.988281 186.660156 291.804688 186.4375 293.609375 186.4375 C 305.050781 186.4375 314.757812 195.160156 316.1875 206.726562 C 317.125 214.296875 315.902344 219.878906 312.445312 223.796875 " fill-opacity="1" fill-rule="nonzero"/></g><g clip-path="url(#e1612d21d6)"><path fill="#ef3220" d="M 437.472656 124.582031 C 437.695312 129.882812 432.785156 133.550781 429.894531 135.351562 C 426.429688 142.429688 420.207031 148.554688 414.171875 154.488281 C 410.386719 158.214844 406.804688 161.742188 404.230469 165.183594 C 396.515625 175.523438 396.570312 178.710938 396.773438 179.433594 C 397.136719 180.746094 401.035156 182.351562 404.480469 183.769531 C 408.921875 185.601562 414.449219 187.875 419.847656 191.890625 C 427.964844 197.925781 431.050781 207.605469 427.898438 217.152344 C 424.644531 227 415.785156 233.882812 406.359375 233.882812 C 406.359375 233.882812 406.351562 233.882812 406.351562 233.882812 C 402.308594 233.882812 398.367188 232.675781 394.648438 230.300781 C 387.789062 225.914062 384.445312 219.199219 381.753906 213.804688 C 379.066406 208.398438 377.660156 206.03125 375.535156 206.03125 C 374.199219 206.03125 371.625 206.667969 366.941406 209.722656 C 360.402344 213.984375 353.851562 222.972656 348.074219 230.902344 C 345.238281 234.789062 342.558594 238.460938 339.917969 241.585938 C 333.34375 249.351562 329.035156 254.117188 323.457031 254.117188 C 318.863281 254.117188 315.488281 251.121094 309.890625 246.160156 C 308.300781 244.75 306.5 243.148438 304.410156 241.386719 C 303.015625 240.210938 300.507812 238.457031 297.609375 236.421875 C 285.953125 228.25 276.878906 221.464844 274.878906 214.769531 C 271.476562 203.355469 278.914062 200.429688 283.355469 198.683594 C 285.488281 197.84375 287.695312 196.976562 289.667969 195.390625 C 297.328125 189.261719 301.464844 180.167969 300.210938 172.230469 C 299.148438 165.507812 294.421875 160.378906 286.539062 157.398438 C 283.441406 156.222656 280.566406 155.628906 278.007812 155.628906 C 265.429688 155.628906 259.800781 170.335938 254.242188 188.101562 L 251.714844 196.15625 L 189.734375 144.808594 L 192.832031 141.128906 C 194.148438 139.558594 196.550781 136.300781 199.332031 132.53125 C 218.867188 106.042969 231.167969 91.691406 240.191406 91.691406 C 241.195312 91.691406 242.160156 91.863281 243.0625 92.191406 C 248.40625 94.15625 251.027344 100.164062 253.566406 105.96875 C 255.398438 110.160156 257.472656 114.917969 260.007812 116.503906 C 263.738281 118.828125 267.503906 120.011719 271.203125 120.011719 C 274.144531 120.011719 277.144531 119.261719 280.117188 117.785156 C 287.941406 113.898438 292.160156 108.179688 292.316406 101.269531 C 292.5 92.792969 286.488281 83.703125 277.351562 78.640625 C 274.0625 76.8125 271.304688 75.648438 269.09375 74.703125 C 265.203125 73.054688 261.839844 71.628906 260.820312 67.933594 C 259.621094 63.585938 262.457031 59.695312 268.664062 51.183594 C 269.667969 49.808594 270.800781 48.207031 272.023438 46.472656 C 278.207031 37.710938 286.546875 25.890625 294.367188 20.40625 C 295.859375 17.035156 299.164062 11.011719 305.242188 11.011719 C 311.082031 11.011719 315.152344 16.96875 316.875 19.765625 C 322.257812 24.308594 327.640625 28.84375 333.027344 33.382812 C 334.75 34.839844 336.78125 36.835938 339.128906 39.152344 C 344.667969 44.609375 353.945312 53.742188 359 54.0625 C 359.292969 54.082031 359.578125 54.089844 359.859375 54.089844 C 365.441406 54.089844 367.230469 50.339844 370.257812 41.121094 C 373.175781 32.25 377.171875 20.09375 392.054688 20.09375 L 392.535156 20.097656 C 399.109375 20.214844 405.828125 23.695312 410.515625 29.40625 C 414.902344 34.757812 416.800781 41.277344 415.71875 47.292969 C 413.890625 57.453125 406.527344 60.910156 400.609375 63.691406 C 397.902344 64.960938 395.347656 66.15625 393.351562 67.867188 C 389.871094 70.863281 388.222656 73.613281 388.308594 76.273438 C 388.527344 82.664062 398.460938 90.101562 406.445312 96.074219 C 409.3125 98.21875 412.027344 100.246094 414.421875 102.277344 C 419.476562 106.515625 424.542969 110.78125 429.59375 115.066406 C 434.664062 117.597656 437.316406 120.792969 437.472656 124.582031 " fill-opacity="1" fill-rule="nonzero"/></g><path fill="#110f0d" d="M 249.820312 198.453125 C 250.375 198.914062 251.042969 199.136719 251.714844 199.136719 C 252.570312 199.136719 253.425781 198.769531 254.011719 198.058594 C 255.058594 196.789062 254.882812 194.90625 253.613281 193.859375 L 198.351562 148.074219 C 197.082031 147.027344 195.203125 147.203125 194.15625 148.476562 C 193.105469 149.742188 193.28125 151.621094 194.550781 152.671875 Z M 353.414062 471.234375 C 353.082031 471.355469 352.738281 471.410156 352.402344 471.410156 C 351.183594 471.410156 350.039062 470.65625 349.601562 469.4375 L 347.980469 464.949219 C 346.949219 462.082031 345.769531 457.828125 344.273438 452.453125 C 341.683594 443.140625 338.140625 430.386719 333.90625 420.105469 C 327.800781 405.285156 323.882812 404.273438 323.84375 404.265625 C 323.796875 404.257812 323.753906 404.257812 323.710938 404.257812 C 321.082031 404.257812 315.148438 408.71875 311.226562 411.667969 C 304.175781 416.96875 296.886719 422.445312 288.792969 422.445312 C 282.796875 422.445312 274.5625 419.355469 269.367188 404.632812 C 266.109375 395.398438 266.308594 388.21875 269.96875 382.675781 C 275.628906 374.113281 286.980469 373.40625 296.992188 372.78125 C 301.460938 372.503906 309.753906 371.988281 311.117188 370.265625 C 315.875 364.246094 308.347656 348.914062 302.296875 336.585938 C 297.972656 327.761719 293.875 319.410156 292.316406 311.789062 L 290.3125 311.609375 C 282.40625 310.882812 271.855469 316.085938 260.675781 321.582031 C 246.136719 328.734375 229.664062 336.835938 220.707031 329.738281 C 216.902344 326.722656 216.4375 319.230469 215.945312 311.300781 C 215.382812 302.230469 214.800781 292.867188 208.71875 288.835938 C 204.851562 286.269531 199.402344 286.285156 192.0625 288.882812 C 182.898438 292.128906 178.25 296.777344 178.25 302.707031 C 178.25 308.824219 183.109375 315.308594 187.816406 321.578125 C 192.046875 327.21875 196.414062 333.046875 196.414062 337.664062 C 196.414062 338.113281 196.371094 338.546875 196.292969 338.957031 C 195.378906 343.597656 188.851562 348.457031 176.894531 353.390625 C 166.296875 357.765625 153.359375 361.371094 143.914062 364 C 138.660156 365.464844 134.515625 366.621094 131.855469 367.578125 L 127.371094 369.199219 C 127.042969 369.320312 126.699219 369.378906 126.363281 369.378906 C 125.144531 369.378906 123.996094 368.625 123.5625 367.40625 C 123.003906 365.855469 123.804688 364.148438 125.355469 363.589844 L 129.839844 361.96875 C 132.703125 360.933594 136.945312 359.753906 142.320312 358.257812 C 151.617188 355.664062 164.355469 352.117188 174.625 347.875 C 189.433594 341.761719 190.4375 337.835938 190.445312 337.800781 C 190.453125 337.753906 190.453125 337.707031 190.453125 337.664062 C 190.453125 335.035156 186.003906 329.097656 183.054688 325.167969 C 177.761719 318.105469 172.289062 310.8125 172.289062 302.707031 C 172.289062 296.707031 175.375 288.457031 190.082031 283.257812 C 199.300781 279.996094 206.476562 280.191406 212.007812 283.859375 C 220.5625 289.53125 221.269531 300.890625 221.890625 310.917969 C 222.167969 315.390625 222.683594 323.695312 224.40625 325.058594 C 230.414062 329.824219 245.734375 322.285156 258.042969 316.230469 C 269.996094 310.351562 281.28125 304.789062 290.851562 305.667969 L 293.875 305.941406 C 294.742188 306.019531 295.476562 306.464844 295.964844 307.105469 C 296.96875 307.453125 297.753906 308.308594 297.9375 309.429688 C 299.101562 316.546875 303.253906 325 307.644531 333.945312 C 314.785156 348.503906 322.878906 365.003906 315.789062 373.96875 C 312.78125 377.78125 305.300781 378.242188 297.378906 378.738281 C 288.316406 379.300781 278.960938 379.882812 274.9375 385.972656 C 272.378906 389.84375 272.394531 395.296875 274.988281 402.644531 C 278.222656 411.824219 282.867188 416.480469 288.792969 416.480469 C 294.902344 416.480469 301.375 411.613281 307.640625 406.902344 C 313.273438 402.664062 319.09375 398.289062 323.710938 398.289062 C 324.152344 398.289062 324.585938 398.332031 325.003906 398.414062 C 329.636719 399.328125 334.484375 405.863281 339.417969 417.835938 C 343.78125 428.441406 347.382812 441.398438 350.015625 450.851562 C 351.476562 456.113281 352.628906 460.265625 353.589844 462.925781 L 355.203125 467.414062 C 355.765625 468.960938 354.960938 470.671875 353.414062 471.234375 " fill-opacity="1" fill-rule="nonzero"/></svg>