<svg xmlns="http://www.w3.org/2000/svg" xmlns:xlink="http://www.w3.org/1999/xlink" width="782" zoomAndPan="magnify" viewBox="0 0 586.5 538.499984" height="718" preserveAspectRatio="xMidYMid meet" version="1.0"><defs><clipPath id="20bf5629aa"><path d="M 163 29.339844 L 520 29.339844 L 520 475 L 163 475 Z M 163 29.339844 " clip-rule="nonzero"/></clipPath><clipPath id="3437abf82b"><path d="M 44.667969 61 L 383.539062 61 L 383.539062 508.402344 L 44.667969 508.402344 Z M 44.667969 61 " clip-rule="nonzero"/></clipPath></defs><g clip-path="url(#20bf5629aa)"><path fill="#ef3220" d="M 519.679688 329.867188 C 519.320312 300.554688 516.167969 292.703125 511.550781 289.933594 C 503.144531 284.890625 434.304688 283.585938 405.035156 283.257812 C 401.976562 283.257812 399.464844 285.746094 399.429688 288.804688 C 399.390625 291.894531 401.878906 294.4375 404.976562 294.476562 C 454.9375 295.035156 499.117188 297.210938 505.363281 299.375 C 505.996094 300.691406 508.222656 306.953125 508.472656 330.730469 C 508.636719 346.199219 507.878906 361.085938 507.871094 361.242188 C 507.792969 362.738281 508.300781 364.171875 509.304688 365.285156 C 510.3125 366.398438 511.6875 367.050781 513.175781 367.132812 C 513.273438 367.136719 513.378906 367.140625 513.472656 367.140625 C 516.460938 367.140625 518.917969 364.804688 519.078125 361.785156 C 519.15625 360.128906 519.875 345.179688 519.679688 329.867188 Z M 481.320312 402.226562 L 463.886719 396.695312 C 462.191406 396.15625 460.429688 395.886719 458.660156 395.886719 C 451.089844 395.886719 444.472656 400.71875 442.183594 407.914062 C 440.277344 413.925781 437.722656 418.375 434.589844 421.136719 C 430.886719 424.40625 426.53125 425.996094 421.277344 425.996094 C 413.777344 425.996094 407.894531 423.347656 403.28125 417.90625 C 398.34375 412.078125 395.730469 400.605469 395.730469 384.726562 C 395.730469 369.753906 398.292969 359.207031 403.351562 353.378906 C 408.070312 347.9375 414.132812 345.292969 421.890625 345.292969 C 427.347656 345.292969 431.753906 346.695312 435.359375 349.578125 C 438.117188 351.789062 440.101562 354.574219 441.433594 358.109375 C 443.953125 364.765625 450.441406 369.238281 457.585938 369.238281 C 458.9375 369.238281 460.289062 369.078125 461.613281 368.761719 L 479.46875 364.496094 C 484.28125 363.347656 488.382812 360.179688 490.710938 355.808594 C 493.046875 351.421875 493.394531 346.230469 491.664062 341.5625 C 487.792969 331.164062 482.425781 322.6875 475.710938 316.375 C 462.183594 303.574219 444.589844 297.078125 423.417969 297.078125 C 399.335938 297.078125 379.519531 305.230469 364.519531 321.304688 C 349.722656 337.164062 342.222656 359.253906 342.222656 386.972656 C 342.222656 413.355469 349.707031 434.675781 364.457031 450.328125 C 379.386719 466.171875 398.605469 474.210938 421.582031 474.210938 C 440.0625 474.210938 455.710938 469.441406 468.097656 460.039062 C 478.992188 451.765625 487.199219 439.742188 492.488281 424.300781 C 494.003906 419.886719 493.675781 415.148438 491.570312 410.960938 C 489.476562 406.8125 485.742188 403.628906 481.320312 402.226562 Z M 269.203125 269.253906 C 250 269.253906 230.796875 269.253906 211.589844 269.253906 C 203.574219 269.253906 192.867188 270.957031 185.027344 268.6875 C 162.632812 262.195312 164.75 217.175781 164.128906 201.242188 C 162.523438 160.105469 162.523438 120.035156 165.730469 82.632812 C 167.339844 63.875 165.03125 36.878906 192.417969 34.421875 C 232.402344 30.835938 274.808594 29.433594 314.96875 29.433594 C 330.492188 29.433594 408.40625 29.308594 416.253906 52.714844 C 420.09375 64.15625 418.535156 70.804688 419.011719 82.25 C 421.132812 133.1875 421.859375 176.359375 417.171875 231.09375 C 415.347656 252.414062 416.003906 268.507812 387.4375 269.253906 C 348.101562 270.273438 308.558594 269.253906 269.203125 269.253906 " fill-opacity="1" fill-rule="nonzero"/></g><g clip-path="url(#3437abf82b)"><path fill="#f8e505" d="M 285.511719 251.375 C 287.230469 251.304688 288.566406 249.851562 288.5 248.128906 C 288.425781 246.414062 287.015625 245.070312 285.253906 245.144531 C 251.027344 246.574219 194.222656 246.726562 187.507812 241.070312 C 186.628906 240.285156 182.25 233.609375 182.132812 178.886719 C 182.074219 149.84375 183.253906 121.515625 183.265625 121.230469 C 183.339844 119.511719 182.003906 118.058594 180.285156 117.988281 C 178.546875 117.882812 177.113281 119.25 177.039062 120.96875 C 177.027344 121.253906 175.835938 149.828125 175.902344 179.078125 C 176.039062 239.5625 181.261719 243.960938 183.488281 245.835938 C 189.648438 251.027344 218.292969 252.257812 244.0625 252.257812 C 262.359375 252.257812 279.207031 251.640625 285.511719 251.375 Z M 293.226562 152.835938 L 309.199219 152.835938 L 301.136719 131.105469 Z M 380.96875 223.328125 C 378.195312 227.429688 373.578125 229.882812 368.625 229.882812 L 348.902344 229.882812 C 342.773438 229.882812 337.183594 226.039062 334.988281 220.324219 L 325.519531 195.695312 L 277.519531 195.695312 L 268.664062 220.0625 C 266.539062 225.9375 260.90625 229.882812 254.660156 229.882812 L 235.746094 229.882812 C 230.816406 229.882812 226.21875 227.453125 223.4375 223.386719 C 220.65625 219.320312 220.070312 214.152344 221.859375 209.558594 L 275.664062 71.371094 C 277.917969 65.601562 283.363281 61.878906 289.554688 61.878906 L 313.304688 61.878906 C 319.4375 61.878906 324.867188 65.554688 327.144531 71.242188 L 382.464844 209.433594 C 384.304688 214.03125 383.75 219.222656 380.96875 223.328125 Z M 274.867188 287.6875 C 278.785156 348.390625 276.777344 405.980469 272.605469 465.960938 C 271.125 487.308594 271.074219 507.207031 245.382812 507.949219 C 209.996094 508.96875 174.421875 507.949219 139.019531 507.949219 C 121.746094 507.949219 104.46875 507.949219 87.195312 507.949219 C 79.984375 507.949219 70.351562 506.515625 63.300781 504.242188 C 43.15625 497.753906 45.148438 453.609375 45.148438 437.664062 C 45.148438 399.410156 43.753906 360.980469 45.714844 322.777344 C 46.84375 300.707031 45.3125 275.574219 69.949219 273.121094 C 105.917969 269.53125 130.105469 270.144531 166.234375 270.144531 C 180.195312 270.144531 273.738281 270.144531 274.867188 287.6875 " fill-opacity="1" fill-rule="nonzero"/></g><path fill="#f288ca" d="M 516.582031 361.691406 C 516.5 363.355469 515.121094 364.648438 513.472656 364.648438 C 513.421875 364.648438 513.367188 364.644531 513.3125 364.644531 C 511.59375 364.554688 510.273438 363.089844 510.359375 361.367188 C 510.367188 361.21875 511.128906 346.25 510.964844 330.707031 C 510.65625 301.351562 507.378906 297.699219 507.003906 297.375 C 502.007812 294.574219 450.699219 292.496094 405 291.984375 C 403.28125 291.964844 401.898438 290.550781 401.917969 288.832031 C 401.9375 287.121094 403.332031 285.753906 405.035156 285.753906 C 405.046875 285.753906 405.058594 285.753906 405.070312 285.753906 C 421.179688 285.929688 501.953125 287.082031 510.269531 292.074219 C 513.480469 294 516.816406 300 517.191406 329.898438 C 517.386719 345.910156 516.589844 361.535156 516.582031 361.691406 Z M 490.132812 423.492188 C 485.007812 438.457031 477.082031 450.085938 466.59375 458.050781 C 454.644531 467.121094 439.503906 471.714844 421.582031 471.714844 C 399.316406 471.714844 380.707031 463.945312 366.269531 448.617188 C 351.96875 433.441406 344.714844 412.699219 344.714844 386.972656 C 344.714844 359.90625 351.992188 338.386719 366.339844 323.007812 C 380.851562 307.457031 400.058594 299.574219 423.417969 299.574219 C 443.933594 299.574219 460.949219 305.835938 473.992188 318.1875 C 480.425781 324.234375 485.589844 332.398438 489.328125 342.429688 C 490.8125 346.429688 490.511719 350.875 488.511719 354.636719 C 486.515625 358.378906 483.007812 361.085938 478.890625 362.070312 L 461.03125 366.335938 C 459.90625 366.605469 458.742188 366.746094 457.585938 366.746094 C 451.46875 366.746094 445.921875 362.917969 443.769531 357.226562 C 442.273438 353.261719 440.03125 350.125 436.917969 347.636719 C 432.851562 344.382812 427.9375 342.800781 421.890625 342.800781 C 413.367188 342.800781 406.6875 345.726562 401.46875 351.746094 C 396.007812 358.042969 393.238281 369.140625 393.238281 384.726562 C 393.238281 401.203125 396.054688 413.234375 401.378906 419.515625 C 406.496094 425.550781 413 428.484375 421.277344 428.484375 C 427.167969 428.484375 432.0625 426.695312 436.234375 423.007812 C 439.710938 419.941406 442.511719 415.113281 444.558594 408.671875 C 446.519531 402.511719 452.183594 398.378906 458.65625 398.378906 C 460.175781 398.378906 461.683594 398.613281 463.136719 399.074219 L 480.566406 404.601562 C 484.351562 405.804688 487.554688 408.527344 489.34375 412.085938 C 491.144531 415.664062 491.425781 419.71875 490.132812 423.492188 Z M 536.84375 407.105469 C 536.84375 370.96875 535.863281 335.820312 532.277344 299.84375 C 529.820312 275.203125 497.019531 275.828125 478.21875 274.976562 C 440.871094 273.277344 411.765625 274.441406 373.519531 274.441406 C 357.582031 274.441406 304.550781 276.1875 298.0625 296.335938 C 295.792969 303.386719 292.976562 351.339844 292.976562 368.621094 C 292.976562 404.027344 296.480469 439.921875 297.503906 475.320312 C 298.242188 501.019531 314.589844 505.011719 335.980469 505.011719 C 396.792969 505.011719 454.441406 508.820312 517.042969 502.75 C 541.605469 500.367188 536.84375 421.066406 536.84375 407.105469 Z M 250.929688 298.105469 C 258.753906 307.605469 257.34375 374.925781 256.984375 388.324219 C 256.9375 390.019531 255.550781 391.359375 253.871094 391.359375 C 253.84375 391.359375 253.8125 391.359375 253.785156 391.359375 C 252.066406 391.3125 250.707031 389.878906 250.753906 388.160156 C 251.625 355.808594 250.769531 307.710938 246.121094 302.066406 C 242.074219 297.152344 196.242188 293.839844 156.09375 293.589844 C 154.375 293.578125 152.988281 292.171875 153 290.453125 C 153.011719 288.734375 154.402344 287.355469 156.117188 287.355469 C 156.121094 287.355469 156.128906 287.355469 156.136719 287.355469 C 156.347656 287.355469 177.703125 287.5 199.691406 288.761719 C 245.390625 291.375 249.273438 296.089844 250.929688 298.105469 Z M 177.476562 421.890625 C 176.152344 423.386719 174.484375 424.269531 172.238281 424.679688 L 172.042969 424.714844 C 171.125 424.90625 167.691406 425.351562 155.597656 425.351562 L 138.871094 425.351562 L 138.871094 405.71875 L 152.496094 405.71875 C 167.503906 405.71875 172.035156 406.726562 173.285156 407.164062 C 175.328125 407.875 176.792969 408.894531 177.753906 410.277344 C 178.753906 411.710938 179.238281 413.546875 179.238281 415.890625 C 179.238281 418.605469 178.664062 420.566406 177.476562 421.890625 Z M 138.871094 354.035156 L 146.382812 354.035156 C 162.117188 354.035156 166.648438 354.28125 167.894531 354.425781 C 170.347656 354.726562 172.074219 355.417969 173.019531 356.488281 C 173.371094 356.886719 174.453125 358.113281 174.453125 361.28125 C 174.453125 364.085938 173.578125 365.324219 172.8125 366.085938 C 171.464844 367.433594 169.457031 368.25 166.664062 368.582031 C 165.445312 368.726562 161.464844 368.972656 148.507812 368.972656 L 138.871094 368.972656 Z M 204.273438 384.335938 C 206.011719 382.535156 207.582031 380.554688 208.96875 378.410156 C 213.03125 372.109375 215.09375 365.09375 215.09375 357.558594 C 215.09375 350.601562 213.398438 344.203125 210.058594 338.519531 C 206.84375 333.054688 202.730469 328.589844 197.832031 325.25 C 192.953125 321.925781 187.382812 319.714844 181.277344 318.679688 C 175.75 317.746094 167.8125 317.285156 157.015625 317.285156 L 110.390625 317.285156 C 103.296875 317.285156 97.523438 323.0625 97.523438 330.160156 L 97.523438 449.492188 C 97.523438 456.589844 103.296875 462.367188 110.390625 462.367188 L 149.355469 462.367188 C 166.496094 462.242188 177.09375 461.941406 181.773438 461.433594 C 189.988281 460.53125 197.09375 458.011719 202.882812 453.945312 C 208.671875 449.882812 213.277344 444.417969 216.574219 437.710938 C 219.824219 431.105469 221.472656 424.183594 221.472656 417.128906 C 221.472656 407.957031 218.800781 399.824219 213.535156 392.945312 C 210.984375 389.605469 207.875 386.71875 204.273438 384.335938 " fill-opacity="1" fill-rule="nonzero"/></svg>